<svg width="51" height="52" viewBox="0 0 51 52" fill="none" xmlns="http://www.w3.org/2000/svg">
<path d="M2.76095 36.9004C5.49818 34.4737 8.71517 33.628 12.277 33.9402C14.5066 34.1376 16.5392 34.8923 18.3447 36.2455C18.4561 36.3279 18.5846 36.3843 18.7902 36.5014C18.8138 36.2411 18.8416 36.0568 18.8416 35.8703C18.8438 32.4092 18.8481 28.9459 18.8373 25.4848C18.8224 19.842 18.8074 14.1992 18.7731 8.55864C18.7645 7.30083 19.1415 6.22303 20.1696 5.50738C20.6622 5.16257 21.2833 4.9392 21.8766 4.82426C25.2328 4.18018 28.5997 3.59032 31.9602 2.97226C34.6203 2.47998 37.2762 1.96818 39.9363 1.47157C42.5065 0.992301 45.0788 0.513035 47.6554 0.0511175C49.4545 -0.269839 50.9473 0.953266 50.9516 2.8031C50.9623 9.83813 50.943 16.871 50.9452 23.9038C50.9452 25.5954 50.9966 27.2869 50.9944 28.9784C50.988 32.0969 51.0416 35.2176 50.9109 38.3317C50.8188 40.5047 49.7072 42.2764 48.0966 43.6752C45.1837 46.2038 41.7782 47.0127 38.0258 46.4706C35.1151 46.0498 32.6177 44.8159 30.7544 42.4608C28.3063 39.3726 28.5055 35.0592 31.1891 32.1836C33.7872 29.3948 37.0513 28.356 40.7437 28.5273C43.1576 28.6379 45.3915 29.3536 47.3577 30.8239C47.4626 30.902 47.5975 30.941 47.8717 31.0711C47.8717 29.9738 47.8738 29.0218 47.8717 28.0719C47.8567 22.5723 47.8374 17.0727 47.8331 11.573C47.8331 11.1176 47.6768 11.0092 47.2591 11.0894C44.5305 11.6077 41.7997 12.1174 39.0689 12.6226C36.7579 13.0477 34.4447 13.4554 32.1337 13.8804C30.1547 14.2469 28.1821 14.6308 26.203 14.9973C24.9436 15.2315 23.6843 15.4657 22.4185 15.6652C22.0201 15.7281 21.8766 15.8799 21.8809 16.2898C21.9108 18.8856 21.9301 21.4815 21.9301 24.0773C21.9301 25.7103 21.868 27.3433 21.8701 28.9763C21.8787 32.4547 21.9173 35.931 21.9258 39.4095C21.9301 40.869 22.0051 42.3415 21.8552 43.7858C21.5896 46.3643 20.2017 48.3204 18.137 49.7734C15.3248 51.7512 12.1892 52.3432 8.82869 51.8184C6.30993 51.4259 4.10386 50.3936 2.30475 48.5308C-0.937949 45.1716 -0.734477 39.9972 2.76095 36.9004Z" fill="black" fill-opacity="0.2"/>
</svg>
