<svg width="51" height="35" viewBox="0 0 51 35" fill="none" xmlns="http://www.w3.org/2000/svg">
<path d="M12.416 13.056C15.5733 13.056 18.176 14.1227 20.224 16.256C22.3573 18.304 23.424 20.9067 23.424 24.064C23.424 27.0507 22.3147 29.6107 20.096 31.744C17.8773 33.792 15.1893 34.816 12.032 34.816C8.36267 34.816 5.41867 33.6213 3.2 31.232C1.06667 28.8427 0 25.216 0 20.352C0 12.928 2.176 7.68 6.528 4.608C10.9653 1.536 16.384 0 22.784 0V3.328C19.1147 3.92534 15.9147 5.12001 13.184 6.912C10.5387 8.61867 9.216 10.752 9.216 13.312C9.984 13.1413 11.0507 13.056 12.416 13.056ZM39.68 13.056C42.8373 13.056 45.44 14.1227 47.488 16.256C49.6213 18.304 50.688 20.9067 50.688 24.064C50.688 27.0507 49.5787 29.6107 47.36 31.744C45.1413 33.792 42.4533 34.816 39.296 34.816C35.6267 34.816 32.6827 33.6213 30.464 31.232C28.3307 28.8427 27.264 25.216 27.264 20.352C27.264 12.928 29.44 7.68 33.792 4.608C38.2293 1.536 43.648 0 50.048 0V3.328C46.3787 3.92534 43.1787 5.12001 40.448 6.912C37.8027 8.61867 36.48 10.752 36.48 13.312C37.248 13.1413 38.3147 13.056 39.68 13.056Z" fill="black" fill-opacity="0.2"/>
</svg>
